<svg width="256" height="256" viewBox="0 0 256 256" fill="none" xmlns="http://www.w3.org/2000/svg">
    <style xmlns="http://www.w3.org/2000/svg">
        path {
            fill: #221D23;
        }
        @media (prefers-color-scheme: dark) {
            path {
                fill: #F8F8F8;
            }
        }
    </style>

    <path d="M112.281 180.768C104.724 186 96.149 188.616 86.557 188.616C76.8197 188.616 69.1897 185.855 63.667 180.332C58.2897 174.664 55.601 166.525 55.601 155.916V86.592H35.545V71.114H55.601V45.172L75.657 42.774V71.114H102.907L100.727 86.592H75.657V155.044C75.657 161.003 76.6743 165.363 78.709 168.124C80.889 170.74 84.4497 172.048 89.391 172.048C93.8963 172.048 98.983 170.522 104.651 167.47L112.281 180.768ZM222.519 76.346C218.159 77.7993 213.363 78.744 208.131 79.18C202.899 79.616 196.505 79.834 188.947 79.834C202.463 85.938 209.221 95.6027 209.221 108.828C209.221 120.309 205.297 129.683 197.449 136.95C189.601 144.217 178.919 147.85 165.403 147.85C160.171 147.85 155.303 147.123 150.797 145.67C149.053 146.833 147.673 148.431 146.655 150.466C145.638 152.355 145.129 154.317 145.129 156.352C145.129 162.601 150.143 165.726 160.171 165.726H178.483C186.186 165.726 193.017 167.107 198.975 169.868C204.934 172.629 209.512 176.408 212.709 181.204C216.052 186 217.723 191.45 217.723 197.554C217.723 208.745 213.145 217.319 203.989 223.278C194.833 229.382 181.463 232.434 163.877 232.434C151.524 232.434 141.714 231.126 134.447 228.51C127.326 226.039 122.239 222.261 119.187 217.174C116.135 212.087 114.609 205.547 114.609 197.554H132.703C132.703 202.205 133.575 205.838 135.319 208.454C137.063 211.215 140.188 213.25 144.693 214.558C149.199 216.011 155.593 216.738 163.877 216.738C175.94 216.738 184.515 215.212 189.601 212.16C194.833 209.253 197.449 204.821 197.449 198.862C197.449 193.485 195.415 189.415 191.345 186.654C187.276 183.893 181.608 182.512 174.341 182.512H156.247C146.51 182.512 139.098 180.477 134.011 176.408C129.07 172.193 126.599 166.961 126.599 160.712C126.599 156.933 127.689 153.3 129.869 149.812C132.049 146.324 135.174 143.199 139.243 140.438C132.558 136.95 127.617 132.663 124.419 127.576C121.367 122.344 119.841 116.022 119.841 108.61C119.841 100.907 121.731 94.004 125.509 87.9C129.433 81.796 134.738 77.0727 141.423 73.73C148.254 70.242 155.811 68.498 164.095 68.498C173.106 68.6433 180.663 68.3527 186.767 67.626C192.871 66.754 197.885 65.664 201.809 64.356C205.879 62.9027 210.82 60.868 216.633 58.252L222.519 76.346ZM164.095 82.886C156.538 82.886 150.652 85.284 146.437 90.08C142.368 94.7307 140.333 100.907 140.333 108.61C140.333 116.458 142.441 122.78 146.655 127.576C150.87 132.227 156.829 134.552 164.531 134.552C172.379 134.552 178.338 132.299 182.407 127.794C186.622 123.143 188.729 116.676 188.729 108.392C188.729 91.388 180.518 82.886 164.095 82.886Z"/>
</svg>
